<svg xmlns="http://www.w3.org/2000/svg" width="463.626" height="92.106" viewBox="0 0 463.626 92.106">
  <path id="Path_90" data-name="Path 90" d="M-163.056-91.2v17.544h-24.768V0h-22.188V-73.659h-24.51V-91.2Zm31.347,0V0h-22.059V-91.2ZM-35.475,0H-57.534L-94.428-55.986V0h-22.059V-91.2h22.059l36.894,56.5V-91.2h22.059ZM1.161-91.2v52.632q0,9.03,4.063,13.8T17.028-20q7.74,0,11.8-4.773t4.063-13.8V-91.2H54.954v52.632q0,12.9-5.031,21.737A32.7,32.7,0,0,1,36.185-3.548,42.6,42.6,0,0,1,16.512.9,41.148,41.148,0,0,1-2.838-3.483,31.15,31.15,0,0,1-16-16.77q-4.773-8.9-4.773-21.8V-91.2ZM124.356-46.956a22.838,22.838,0,0,1,13.093,8A21.894,21.894,0,0,1,142.287-24.9q0,11.739-7.8,18.318T112.1,0H69.66V-91.2h41.409q13.932,0,21.543,6.063t7.611,17.286q0,8.256-4.386,13.739A20.213,20.213,0,0,1,124.356-46.956ZM91.719-53.922h14.448q11.481,0,11.481-9.8t-11.739-9.8H91.719Zm15.738,35.991q12.255,0,12.255-10.062a9.585,9.585,0,0,0-3.225-7.676q-3.225-2.774-9.159-2.773H91.719v20.511ZM175.311-91.2v52.632q0,9.03,4.063,13.8T191.178-20q7.74,0,11.8-4.773t4.063-13.8V-91.2H229.1v52.632q0,12.9-5.031,21.737A32.7,32.7,0,0,1,210.335-3.548,42.6,42.6,0,0,1,190.662.9a41.148,41.148,0,0,1-19.35-4.386A31.15,31.15,0,0,1,158.154-16.77q-4.773-8.9-4.773-21.8V-91.2Z" transform="translate(234.522 91.203)" fill="#070707"/>
</svg>
