<svg xmlns="http://www.w3.org/2000/svg" width="56.889" height="40" viewBox="0 0 56.889 40">
  <path id="FontAwsome_youtube_" data-name="FontAwsome (youtube)" d="M70.633,70.259A7.148,7.148,0,0,0,65.6,65.2C61.167,64,43.377,64,43.377,64s-17.79,0-22.226,1.2a7.148,7.148,0,0,0-5.03,5.062c-1.189,4.465-1.189,13.782-1.189,13.782s0,9.316,1.189,13.782a7.042,7.042,0,0,0,5.03,4.981c4.437,1.2,22.226,1.2,22.226,1.2s17.79,0,22.226-1.2a7.042,7.042,0,0,0,5.03-4.981c1.189-4.465,1.189-13.782,1.189-13.782S71.822,74.724,70.633,70.259ZM37.559,92.5V75.582l14.869,8.459L37.559,92.5Z" transform="translate(-14.933 -64)" fill="#5a5a5a"/>
</svg>
