<svg xmlns="http://www.w3.org/2000/svg" width="377.067" height="92.106" viewBox="0 0 377.067 92.106">
  <path id="Path_92" data-name="Path 92" d="M-128.484-16.641h-34.185L-168.345,0h-23.22l33.411-90.558h25.413L-99.33,0h-23.478Zm-5.676-16.77-11.352-33.54-11.481,33.54ZM-25.284-91.2v17.544H-50.052V0H-72.24V-73.659H-96.75V-91.2Zm31.347,0V0H-16V-91.2ZM64.242-46.569,101.007,0H74.3L43.344-40.893V0H21.285V-91.2H43.344v40.119L74.562-91.2h26.445ZM131.709-91.2v52.632q0,9.03,4.063,13.8T147.576-20q7.74,0,11.8-4.773t4.063-13.8V-91.2H185.5v52.632q0,12.9-5.031,21.737A32.7,32.7,0,0,1,166.733-3.548,42.6,42.6,0,0,1,147.06.9a41.148,41.148,0,0,1-19.35-4.386A31.15,31.15,0,0,1,114.552-16.77q-4.773-8.9-4.773-21.8V-91.2Z" transform="translate(191.565 91.203)" fill="#070707"/>
</svg>
