<svg xmlns="http://www.w3.org/2000/svg" width="210.786" height="93.525" viewBox="0 0 210.786 93.525">
  <path id="Path_93" data-name="Path 93" d="M-60.694-92.622a46.4,46.4,0,0,1,23.413,6A43.7,43.7,0,0,1-20.7-69.983a47.733,47.733,0,0,1,6.063,24.059A47.691,47.691,0,0,1-20.769-21.8,44.035,44.035,0,0,1-37.41-5.1,46.154,46.154,0,0,1-60.694.9a46.154,46.154,0,0,1-23.285-6A44.035,44.035,0,0,1-100.62-21.8a47.691,47.691,0,0,1-6.128-24.123,47.338,47.338,0,0,1,6.128-24.059A44.167,44.167,0,0,1-83.979-86.624,46.154,46.154,0,0,1-60.694-92.622Zm0,20.511q-10.836,0-17.221,7.03T-84.3-45.924q0,12,6.386,19.092t17.221,7.095q10.707,0,17.157-7.095t6.45-19.092q0-12-6.385-19.092T-60.694-72.111ZM52.439-46.956a22.838,22.838,0,0,1,13.094,8A21.894,21.894,0,0,1,70.37-24.9q0,11.739-7.8,18.318T40.184,0H-2.257V-91.2H39.152q13.932,0,21.543,6.063t7.611,17.286q0,8.256-4.386,13.739A20.213,20.213,0,0,1,52.439-46.956ZM19.8-53.922H34.25q11.481,0,11.481-9.8t-11.739-9.8H19.8ZM35.54-17.931q12.255,0,12.255-10.062a9.585,9.585,0,0,0-3.225-7.676q-3.225-2.774-9.159-2.773H19.8v20.511Zm68.5-73.272V0H81.979V-91.2Z" transform="translate(106.748 92.622)" fill="#070707"/>
</svg>
