<svg xmlns="http://www.w3.org/2000/svg" width="128.85" height="35.649" viewBox="0 0 128.85 35.649">
  <path id="Path_94" data-name="Path 94" d="M-56.125-13.1V0h-7.05V-35.3h12.85q6.25,0,9.425,3a10.676,10.676,0,0,1,3.175,8.15A10.385,10.385,0,0,1-41-16.1q-3.275,3-9.325,3Zm5.05-5.65q6.2,0,6.2-5.4a5.372,5.372,0,0,0-1.45-4.05q-1.45-1.4-4.75-1.4h-5.05v10.85Zm44,3.85a13.348,13.348,0,0,1-.25,2.4h-20.3q.15,3.7,2,5.45a6.435,6.435,0,0,0,4.6,1.75A6.674,6.674,0,0,0-16.95-6.5a5.315,5.315,0,0,0,2.075-3.25h7.45a11.919,11.919,0,0,1-2.35,5.2A12.28,12.28,0,0,1-14.4-.95,14.833,14.833,0,0,1-20.675.35a14.744,14.744,0,0,1-7.2-1.725,12.126,12.126,0,0,1-4.9-4.925,15.5,15.5,0,0,1-1.75-7.55,15.647,15.647,0,0,1,1.75-7.575,11.927,11.927,0,0,1,4.9-4.925,14.919,14.919,0,0,1,7.2-1.7,14.593,14.593,0,0,1,7.175,1.7,11.982,11.982,0,0,1,4.75,4.675A13.569,13.569,0,0,1-7.075-14.9Zm-7.1-.7a6.213,6.213,0,0,0-1.775-5.15,6.767,6.767,0,0,0-4.725-1.75,6.925,6.925,0,0,0-4.8,1.75,7.164,7.164,0,0,0-2.15,5.15Zm26.9,9.55V0h-3.7Q4.375,0,1.9-2.25T-.575-9.75v-12h-3.85V-27.7h3.85v-6.85h7.05v6.85h6.2v5.95h-6.2v12.1a3.9,3.9,0,0,0,.8,2.8,3.734,3.734,0,0,0,2.7.8Zm31.1-8.85a13.348,13.348,0,0,1-.25,2.4h-20.3q.15,3.7,2,5.45a6.435,6.435,0,0,0,4.6,1.75A6.674,6.674,0,0,0,33.95-6.5a5.315,5.315,0,0,0,2.075-3.25h7.45a11.919,11.919,0,0,1-2.35,5.2A12.28,12.28,0,0,1,36.5-.95,14.833,14.833,0,0,1,30.225.35a14.744,14.744,0,0,1-7.2-1.725,12.126,12.126,0,0,1-4.9-4.925,15.5,15.5,0,0,1-1.75-7.55,15.647,15.647,0,0,1,1.75-7.575,11.927,11.927,0,0,1,4.9-4.925,14.919,14.919,0,0,1,7.2-1.7,14.593,14.593,0,0,1,7.175,1.7,11.982,11.982,0,0,1,4.75,4.675A13.569,13.569,0,0,1,43.825-14.9Zm-7.1-.7a6.213,6.213,0,0,0-1.775-5.15,6.767,6.767,0,0,0-4.725-1.75,6.925,6.925,0,0,0-4.8,1.75,7.164,7.164,0,0,0-2.15,5.15Zm19.15-6.8a11.587,11.587,0,0,1,4.1-4.175,10.892,10.892,0,0,1,5.7-1.525v7.55h-2.05q-7.75,0-7.75,7.2V0h-7.05V-27.7h7.05Z" transform="translate(63.175 35.3)" fill="#070707"/>
</svg>
